<?xml version="1.0" encoding="UTF-8"?>
<svg id="Layer_1" data-name="Layer 1" xmlns="http://www.w3.org/2000/svg" viewBox="0 0 955.27 493.87">
  <defs>
    <style>
      .cls-1 {
        fill: #020202;
      }
    </style>
  </defs>
  <path class="cls-1" d="M396.22,387.4h53.28l-12.2-47.35c-48.46,14.81-116.46.89-147.68-66.77-6.38-13.82-10.95-26.54-12.71-39.18l-32.24,153.3h83.88l5.01-34.75h57.64l5.01,34.75Z"/>
  <path class="cls-1" d="M368.02,71.1s-5.81-23-8.98-34.42c-2.84-10.22-5.46-20.53-7.37-31h-26.71l-32.51,154.58c12.58-27.88,48.39-56.03,75.58-89.17"/>
  <path class="cls-1" d="M34.78,492.5c-2.01.77-4.37,1.15-7.09,1.15s-5.3-.65-7.5-1.95c-2.2-1.3-4.06-3.12-5.59-5.45-1.53-2.33-2.7-5.14-3.51-8.41-.82-3.27-1.22-6.91-1.22-10.9s.41-7.64,1.22-10.94c.82-3.3,1.98-6.14,3.48-8.52,1.51-2.38,3.31-4.22,5.43-5.52,2.11-1.3,4.47-1.95,7.06-1.95,3.01,0,5.53.59,7.56,1.77,2.03,1.18,3.63,2.66,4.8,4.44l-5.46,8.45c-1.51-2.41-3.57-3.61-6.18-3.61-1.39,0-2.59.42-3.59,1.27-1.01.84-1.85,1.98-2.52,3.43-.67,1.44-1.17,3.13-1.48,5.05-.32,1.93-.47,3.97-.47,6.14s.15,4.21.44,6.14c.29,1.93.77,3.61,1.42,5.05.65,1.44,1.47,2.6,2.46,3.47.99.87,2.18,1.3,3.57,1.3,1.51,0,2.69-.36,3.53-1.08v-9.53h-4.77v-10.04h13.56v27.22c-1.42,1.25-3.14,2.26-5.15,3.03"/>
  <polygon class="cls-1" points="59.38 492.5 59.38 441.37 80.85 441.37 80.85 451.56 68.98 451.56 68.98 461.59 79.91 461.59 79.91 471.12 68.98 471.12 68.98 482.1 81.6 482.1 81.6 492.5 59.38 492.5"/>
  <polygon class="cls-1" points="119.25 492.5 108.96 461.38 108.77 461.38 109.02 492.5 100.05 492.5 100.05 441.37 111.09 441.37 121.32 472.93 121.51 472.93 121.32 441.37 129.98 441.37 129.98 492.5 119.25 492.5"/>
  <polygon class="cls-1" points="150.44 492.5 150.44 441.37 171.91 441.37 171.91 451.56 160.04 451.56 160.04 461.59 170.96 461.59 170.96 471.12 160.04 471.12 160.04 482.1 172.66 482.1 172.66 492.5 150.44 492.5"/>
  <polygon class="cls-1" points="210.56 492.5 197.82 492.5 187.09 441.37 198.45 441.37 204.47 478.78 204.6 478.78 210.56 441.37 221.48 441.37 210.56 492.5"/>
  <path class="cls-1" d="M256.88,492.5l-1.82-9.32h-9.98l-1.82,9.32h-10.04l10.79-51.12h12.61l10.73,51.12h-10.48ZM250.23,452.49h-.25l-3.77,21.73h7.59l-3.58-21.73Z"/>
  <polygon class="cls-1" points="350.95 492.5 351.32 457.4 351.07 457.4 343.61 492.5 336.51 492.5 329.3 457.4 329.11 457.4 329.42 492.5 320.32 492.5 320.32 441.37 333 441.37 340.15 474.3 340.4 474.3 347.37 441.37 360.8 441.37 360.8 492.5 350.95 492.5"/>
  <path class="cls-1" d="M409.72,481.52c-.56,2.46-1.45,4.6-2.67,6.43-1.21,1.83-2.78,3.27-4.71,4.33-1.92,1.06-4.25,1.59-6.96,1.59s-5.02-.53-6.9-1.59c-1.88-1.06-3.42-2.5-4.61-4.33-1.19-1.83-2.05-3.97-2.57-6.43-.52-2.46-.78-5.1-.78-7.94v-32.2h10.1v31.19c0,1.44.07,2.79.22,4.04.15,1.25.41,2.32.78,3.21.38.89.88,1.6,1.51,2.13.63.53,1.45.79,2.45.79s1.82-.26,2.45-.79c.63-.53,1.13-1.24,1.51-2.13.38-.89.64-1.96.78-3.21.15-1.25.22-2.6.22-4.04v-31.19h10.04v32.2c0,2.84-.28,5.49-.85,7.94"/>
  <path class="cls-1" d="M448.66,453.58c-.75-1.01-1.63-1.79-2.64-2.35-1-.55-2.05-.83-3.14-.83s-2.15.41-3.04,1.23c-.9.82-1.35,2.17-1.35,4.05,0,1.59.46,2.83,1.38,3.73.92.89,2.28,1.87,4.08,2.93,1.01.58,2.07,1.27,3.19,2.06,1.12.8,2.14,1.77,3.06,2.93.93,1.16,1.7,2.54,2.31,4.16.61,1.62.92,3.53.92,5.75,0,2.75-.38,5.17-1.14,7.27-.76,2.1-1.78,3.83-3.06,5.21-1.28,1.37-2.77,2.41-4.45,3.11-1.68.7-3.42,1.05-5.22,1.05-2.68,0-5.11-.58-7.31-1.73-2.2-1.16-3.96-2.5-5.3-4.04l5.14-8.67c.96,1.16,2.07,2.08,3.33,2.78,1.26.7,2.53,1.05,3.83,1.05,1.22,0,2.24-.46,3.08-1.37.84-.92,1.26-2.19,1.26-3.83s-.5-3.02-1.51-4.01c-1-.99-2.47-2.03-4.39-3.14-1.21-.67-2.35-1.42-3.42-2.24-1.07-.82-2.01-1.8-2.82-2.96-.82-1.16-1.46-2.5-1.92-4.04-.46-1.54-.69-3.37-.69-5.49,0-2.84.41-5.28,1.22-7.33.82-2.04,1.89-3.72,3.2-5.02,1.32-1.3,2.78-2.26,4.39-2.89,1.61-.62,3.23-.94,4.86-.94,2.43,0,4.6.46,6.53,1.36,1.92.91,3.53,2.15,4.83,3.73l-5.21,8.48Z"/>
  <rect class="cls-1" x="471.75" y="441.37" width="10.1" height="51.12"/>
  <path class="cls-1" d="M525.28,491.88c-1.97,1.32-4.48,1.99-7.53,1.99-2.6,0-4.95-.66-7.06-1.99-2.11-1.32-3.92-3.18-5.43-5.56-1.51-2.38-2.68-5.22-3.51-8.52-.84-3.3-1.25-6.92-1.25-10.86s.42-7.66,1.25-10.98c.84-3.32,2.01-6.16,3.51-8.52,1.51-2.36,3.32-4.19,5.43-5.49,2.11-1.3,4.47-1.95,7.06-1.95,2.97,0,5.45.61,7.43,1.84,1.99,1.23,3.59,2.76,4.8,4.58l-5.4,8.38c-.75-1.16-1.6-2.07-2.54-2.74-.94-.67-2.12-1.01-3.54-1.01-1.34,0-2.5.41-3.48,1.23-.98.82-1.82,1.94-2.51,3.36-.69,1.42-1.2,3.1-1.54,5.05-.33,1.95-.5,4.03-.5,6.25s.17,4.28.5,6.21c.34,1.93.85,3.61,1.54,5.05.69,1.45,1.54,2.57,2.54,3.39,1,.82,2.18,1.23,3.51,1.23s2.51-.38,3.51-1.16c1-.77,1.8-1.69,2.38-2.74l5.59,8.01c-1.21,1.98-2.8,3.62-4.77,4.95"/>
  <path class="cls-1" d="M565.95,492.5l-1.82-9.32h-9.98l-1.82,9.32h-10.04l10.79-51.12h12.61l10.73,51.12h-10.48ZM559.3,452.49h-.25l-3.77,21.73h7.59l-3.58-21.73Z"/>
  <polygon class="cls-1" points="592.87 492.5 592.87 441.37 603.04 441.37 603.04 481.81 614.9 481.81 614.9 492.5 592.87 492.5"/>
  <polygon class="cls-1" points="677.47 451.2 677.47 492.5 667.61 492.5 667.61 451.2 659.46 451.2 659.46 441.37 685.63 441.37 685.63 451.2 677.47 451.2"/>
  <polygon class="cls-1" points="722.4 492.5 722.4 471.12 712.05 471.12 712.05 492.5 702.07 492.5 702.07 441.37 712.05 441.37 712.05 460.73 722.4 460.73 722.4 441.37 732.38 441.37 732.38 492.5 722.4 492.5"/>
  <polygon class="cls-1" points="752.84 492.5 752.84 441.37 774.3 441.37 774.3 451.56 762.44 451.56 762.44 461.59 773.36 461.59 773.36 471.12 762.44 471.12 762.44 482.1 775.05 482.1 775.05 492.5 752.84 492.5"/>
  <path class="cls-1" d="M813.21,492.5l-1.82-9.32h-9.98l-1.82,9.32h-10.04l10.79-51.12h12.61l10.73,51.12h-10.48ZM806.55,452.49h-.25l-3.77,21.73h7.59l-3.58-21.73Z"/>
  <polygon class="cls-1" points="852.99 451.2 852.99 492.5 843.14 492.5 843.14 451.2 834.98 451.2 834.98 441.37 861.15 441.37 861.15 451.2 852.99 451.2"/>
  <path class="cls-1" d="M896.14,492.5l-5.94-20.36h-2.94v20.36h-9.66v-51.12h14.21c4.3,0,7.64,1.29,10.02,3.86,2.38,2.57,3.57,6.41,3.57,11.52,0,1.88-.19,3.56-.56,5.05-.37,1.49-.86,2.77-1.47,3.82-.6,1.06-1.28,1.93-2.03,2.6-.75.68-1.48,1.15-2.19,1.45l7.57,22.82h-10.57ZM895.54,457.4c0-1.3-.16-2.36-.47-3.18-.31-.82-.72-1.47-1.22-1.95-.5-.48-1.06-.8-1.66-.97-.61-.17-1.2-.25-1.79-.25h-3.14v12.93h2.95c1.42,0,2.67-.52,3.73-1.55,1.07-1.04,1.6-2.71,1.6-5.02"/>
  <polygon class="cls-1" points="924.1 492.5 924.1 441.37 945.56 441.37 945.56 451.56 933.7 451.56 933.7 461.59 944.62 461.59 944.62 471.12 933.7 471.12 933.7 482.1 946.31 482.1 946.31 492.5 924.1 492.5"/>
  <path class="cls-1" d="M218.58,139.99l-75.99.02v-4.76c0-38.03-7.26-58.65-26.61-58.65-25.71,0-36.22,50.84-36.22,118.66s10.39,121.76,36.22,121.76c35.17,0,34.82-59.71,34.38-73.36l-23.25-18.28v-47.36h91.47v209.3h-29.21l-16.67-21.97c-9.95,16.07-35.66,25.04-69.2,25.04C15.52,390.39,0,271.69,0,195.22S12.87,0,114.17,0c91.18,0,104.41,67.62,104.41,136.3v3.69Z"/>
  <path class="cls-1" d="M811.69,246.7v22.19c0,33,13.38,52.3,36.84,52.3,19.56,0,31.46-15.55,31.46-34.87,0-23.23-13.33-37.5-45.86-59.69l-35.18-23.78c-40-26.94-51.78-56.52-51.78-95.61,0-70.79,44.31-107.25,102.96-107.25,55.46,0,101.89,32.76,101.89,116.76v15.32h-70.38v-10.04c0-36.45-12.13-52.82-33.64-52.82-15.84,0-29.86,11.79-29.86,31.17,0,12.67,4.8,25.36,41.59,49.13l35.72,23.25c61.32,40.15,59.82,90.33,59.82,108.29,0,69.73-36.89,109.34-101.94,109.34-59.19,0-115.23-32.74-115.23-116.21v-27.47h73.59Z"/>
  <path class="cls-1" d="M604.05,0C496.08,0,493.34,130.75,493.34,195.26s2.19,195.13,110.71,195.13,110.71-130.62,110.71-195.13S712.03,0,604.05,0M604.05,313.79c-29.11,0-34.89-54.17-34.89-118.55s5.26-118.64,34.89-118.64,34.89,54.27,34.89,118.64-5.79,118.55-34.89,118.55"/>
  <path class="cls-1" d="M401.17,198.33c-10.23,1.92-21.48,11.43-27.05,20.21-.58.92-.74,1.18-1.26,2.15l7.76,54.7h-9.55c3.21,7.09,7.88,13.09,14,16.99,2.94,1.88,10.22,5.93,19.8,7.3-1.58.74-9.32,1.02-10.9,1.02-2.76.01-5.61-.5-8.26-1.32-13.89-4.3-23.64-12.81-29.6-24.01h-10.39l3.98-27.6c-1.21-9.46.63-23.54,4.64-33.92l7.78-53.38h2.16l4.19,31.1c2.23-2.5,4.7-4.97,7.47-7.36,4.96-4.3,11.41-8.76,18.61-11.89-4.76-18.82-10.72-41.91-15.74-61.76-6.16,7.06-51.52,54.18-62.81,77.29-12.32,25.21-13.3,48.76-5.33,76.47,10.45,36.39,57.7,76.89,123.06,61.75-10.35-40.85-22.2-86.89-32.55-127.74"/>
  <path class="cls-1" d="M420.48,167.54c6.88-.08,13.33.42,19.33,1.53l-23.08-109.16c-7.77,14.6-16.01,25.14-26.98,38.29l18.13,70.38c3.66-.54,8.44-.99,12.6-1.04"/>
  <path class="cls-1" d="M407.07,14.4l-1.85-8.71h-38.56c-1.12,1.63,13.55,54.64,13.55,54.64,8.81-12.2,18.39-28.42,26.86-45.93"/>
  <path class="cls-1" d="M486.03,387.4l-14.11-66.67c-4.73,5.09-11.05,9.77-21.14,14.38l13.47,52.29h21.78Z"/>
  <path class="cls-1" d="M468.84,305.53l-21.97-103.12c-11.3-6.11-22.79-7.81-32.1-7.07l32.59,126.51c6.85-3.06,15.97-8.7,21.48-16.32"/>
</svg>